<svg width="30" height="30" viewBox="0 0 30 30" fill="none" xmlns="http://www.w3.org/2000/svg">
<path d="M6.42857 0C6.14445 0 5.87181 0.112886 5.67092 0.313776L0.313776 5.67092C0.112886 5.87181 0 6.14445 0 6.42857V26.7857C0 28.561 1.43902 30 3.21429 30H20.3571C22.1324 30 23.5714 28.561 23.5714 26.7857V23.5714H21.4286V26.7857C21.4286 27.3774 20.9488 27.8571 20.3571 27.8571H3.21429C2.62261 27.8571 2.14286 27.3774 2.14286 26.7857V7.5H4.28571C6.06098 7.5 7.5 6.06098 7.5 4.28571V2.14286H20.3571C20.9488 2.14286 21.4286 2.62261 21.4286 3.21429V6.42857H23.5714V3.21429C23.5714 1.43902 22.1324 0 20.3571 0H6.42857Z" fill="black"/>
<path fill-rule="evenodd" clip-rule="evenodd" d="M22.5 7.5C18.3578 7.5 15 10.8578 15 15C15 19.1422 18.3578 22.5 22.5 22.5C26.6422 22.5 30 19.1422 30 15C30 10.8578 26.6422 7.5 22.5 7.5ZM22.5 10.7143C23.0917 10.7143 23.5714 11.194 23.5714 11.7857V13.9286H25.7143C26.306 13.9286 26.7857 14.4083 26.7857 15C26.7857 15.5917 26.306 16.0714 25.7143 16.0714H23.5714V18.2143C23.5714 18.806 23.0917 19.2857 22.5 19.2857C21.9083 19.2857 21.4286 18.806 21.4286 18.2143V16.0714H19.2857C18.694 16.0714 18.2143 15.5917 18.2143 15C18.2143 14.4083 18.694 13.9286 19.2857 13.9286H21.4286V11.7857C21.4286 11.194 21.9083 10.7143 22.5 10.7143Z" fill="black"/>
</svg>
