<svg width="45" height="30" viewBox="0 0 45 30" fill="none" xmlns="http://www.w3.org/2000/svg">
<path fill-rule="evenodd" clip-rule="evenodd" d="M10.2977 2.64707C11.6918 1.18551 14.4171 0 16.3879 0H41.4329C43.4032 0 45 1.67744 45 3.75431V26.2457C45 28.3187 43.4039 30 41.4329 30H16.3879C14.4183 30 11.6874 28.8105 10.2977 27.3529L1.04373 17.6471C-0.349784 16.1849 -0.346033 13.8104 1.04373 12.3528L10.2977 2.64707ZM15.1554 13.8615C14.5487 14.5089 14.5493 15.5551 15.1554 16.1966L22.3337 23.7942C24.0103 25.5553 26.5255 22.9133 24.8489 21.1516L21.7171 17.8617C21.1946 17.313 21.3629 16.8683 22.1112 16.8683H30.7041C31.6868 16.8683 32.4824 16.032 32.4824 15.0001C32.4824 13.9682 31.6868 13.1318 30.7041 13.1318H22.1112C21.3711 13.1318 21.1921 12.6891 21.7171 12.1384L24.8489 8.84853C26.5255 7.08689 24.0103 4.44484 22.3337 6.20598L15.1554 13.8615Z" fill="black"/>
</svg>
