<svg width="30" height="30" viewBox="0 0 30 30" fill="none" xmlns="http://www.w3.org/2000/svg">
<path d="M20 4.99992H23.75C24.413 4.99992 25.0489 5.26332 25.5178 5.73216C25.9866 6.201 26.25 6.83688 26.25 7.49992V8.74992M20 24.9999H23.75C24.413 24.9999 25.0489 24.7365 25.5178 24.2677C25.9866 23.7988 26.25 23.163 26.25 22.4999V21.2499M11.2513 14.9999H11.25M20 14.9999H26.25M26.25 14.9999L23.75 12.4999M26.25 14.9999L23.75 17.4999M5.53125 24.2849L13.0313 26.5349C13.4046 26.647 13.799 26.6702 14.1829 26.6027C14.5668 26.5352 14.9297 26.3789 15.2424 26.1462C15.5551 25.9135 15.8091 25.6109 15.9841 25.2625C16.159 24.9142 16.2501 24.5297 16.25 24.1399V5.85992C16.2501 5.47011 16.159 5.08568 15.9841 4.73734C15.8091 4.38899 15.5551 4.08639 15.2424 3.85369C14.9297 3.62099 14.5668 3.46464 14.1829 3.39714C13.799 3.32964 13.4046 3.35285 13.0313 3.46492L5.53125 5.71492C5.01628 5.86951 4.56486 6.18599 4.24399 6.61743C3.92311 7.04886 3.74988 7.57225 3.75 8.10992V21.8899C3.74988 22.4276 3.92311 22.951 4.24399 23.3824C4.56486 23.8139 5.01628 24.1303 5.53125 24.2849V24.2849Z" stroke="#444444" stroke-width="2.5" stroke-linecap="round" stroke-linejoin="round"/>
</svg>
